<?xml version="1.0" encoding="utf-8"?>
<!-- Generator: Adobe Illustrator 16.0.0, SVG Export Plug-In . SVG Version: 6.00 Build 0)  -->
<!DOCTYPE svg PUBLIC "-//W3C//DTD SVG 1.1//EN" "http://www.w3.org/Graphics/SVG/1.1/DTD/svg11.dtd">
<svg version="1.1" id="Capa_1" xmlns="http://www.w3.org/2000/svg" xmlns:xlink="http://www.w3.org/1999/xlink" x="0px" y="0px"
	 width="595.281px" height="274.96px" viewBox="0 0 595.281 274.96" enable-background="new 0 0 595.281 274.96"
	 xml:space="preserve">
<title>Empresa</title>
<g id="Capa_2">
	<g id="Capa_1-2">
		<linearGradient id="SVGID_1_" gradientUnits="userSpaceOnUse" x1="240.4363" y1="133.4214" x2="423.2644" y2="133.4214">
			<stop  offset="1" style="stop-color:#FFFFFF"/>
			<stop  offset="1" style="stop-color:#000000"/>
		</linearGradient>
		<path fill="url(#SVGID_1_)" d="M354.782,207.273v-11.27h-2.935c-10.771,0-21.543-0.297-32.298,0.094
			c-7.556,0.265-14.533-0.688-21.137-4.684c-3.604-1.907-7.303-3.627-11.083-5.151c20.855-19.231,21.151-48.61,10.475-67.265
			c-9.086-15.892-29.66-31.221-57.368-24.524V28.099c0-5.308,1.701-7.025,6.993-7.025h43.959V8.133
			C291.404,2.56,293.901,0,299.412,0h64.611c5.869,0,8.289,2.451,8.289,8.367v13.003h43.818c5.541,0,7.134,1.561,7.134,7.087
			c0,76.584,0,153.163,0,229.737c0,6.166-2.451,8.648-8.586,8.648h-64.361v-53.669c-5.103-0.241-10.216-0.199-15.313,0.125
			c-5.151,0.593-7.415-2.997-10.412-6.026H354.782z M401.144,89.416v-29.66h-12.848v29.66H401.144z M371.485,59.616v29.66h12.847
			v-29.66H371.485z M371.485,188.463v29.659h12.831v-29.659H371.485z M401.144,218.248v-29.66h-12.863v29.66H401.144z
			 M289.094,88.979v-29.66h-12.77v29.66H289.094z M271.923,88.979V59.226c-3.919,0-7.806,0-11.802,0
			c-0.391,0-1.077,0.843-1.077,1.295c0,9.366,0,18.732,0,28.442L271.923,88.979z M345.291,59.678h-12.785v29.66h12.785V59.678z
			 M401.222,151.279V121.76h-12.863v29.659L401.222,151.279z M384.426,151.279V121.76h-12.862v29.659L384.426,151.279z
			 M345.291,121.76h-12.832c0,0.64-0.188,1.296-0.188,1.951c0,8.461,0,16.938,0,25.414c0,1.92,0.578,2.497,2.451,2.419
			c3.466-0.141,6.915,0,10.615,0L345.291,121.76z M315.46,121.76v29.659c3.949,0,7.961,0,11.988,0c0.313,0,0.89-0.967,0.89-1.561
			c0-9.366,0-18.607,0-28.224L315.46,121.76z M328.213,89.447v-29.66h-12.769v29.66H328.213z"/>
		<linearGradient id="SVGID_2_" gradientUnits="userSpaceOnUse" x1="171.9553" y1="236.7524" x2="334.5906" y2="236.7524">
			<stop  offset="1" style="stop-color:#FFFFFF"/>
			<stop  offset="1" style="stop-color:#000000"/>
		</linearGradient>
		<path fill="url(#SVGID_2_)" d="M322.109,220.105c6.571,7.066,10.845,15.961,12.254,25.508c0.91,4.266-0.966,8.644-4.683,10.927
			c-7.838,5.237-16.48,9.155-25.585,11.599c-30.753,8.539-61.771,8.742-92.882,2.279c-12.109-2.338-23.663-6.957-34.046-13.612
			c-3.904-2.349-5.905-6.9-4.995-11.364c1.221-8.352,4.739-16.199,10.162-22.666c7.556-9.273,17.327-15.61,27.974-20.699
			c2.42-1.171,4.901-2.17,7.478-3.31l26.787,45.099c1.187-9.367,1.967-18.498,2.513-27.693c0.067-2.075-0.294-4.143-1.061-6.072
			c-1.437-3.855-3.216-7.57-4.934-11.536h24.274c-1.249,3.122-2.295,5.995-3.638,8.788c-1.902,3.51-2.599,7.547-1.982,11.49
			c0.516,2.903,0.453,5.9,0.688,8.866c0.421,5.292,0.874,10.584,1.311,15.892l0.531,0.141l26.381-44.958
			C301.379,203.683,312.93,210.037,322.109,220.105z M203.331,252.326h23.415v-5.995h-23.415V252.326z"/>
		<linearGradient id="SVGID_3_" gradientUnits="userSpaceOnUse" x1="212.5857" y1="145.9097" x2="293.8469" y2="145.9097">
			<stop  offset="1" style="stop-color:#FFFFFF"/>
			<stop  offset="1" style="stop-color:#000000"/>
		</linearGradient>
		<path fill="url(#SVGID_3_)" d="M255.11,103.122c-15.72,0.453-26.538,6.244-34.515,17.453
			c-11.489,16.407-10.536,38.484,2.326,53.839c13.768,16.717,38.48,19.108,55.198,5.34c1.154-0.951,2.255-1.968,3.293-3.045
			c22.183-22.416,13.379-61.832-16.047-71.464C262.001,104.3,258.574,103.59,255.11,103.122z"/>
	</g>
</g>
</svg>
