<svg xmlns="http://www.w3.org/2000/svg" viewBox="0 0 160.95 176.14"><defs><style>.cls-1{fill:#264e8f;}</style></defs><title>Empresa</title><g id="Capa_2" data-name="Capa 2"><g id="Capa_1-2" data-name="Capa 1"><path class="cls-1" d="M117.08,132.78v-7.22H115.2c-6.9,0-13.8-.19-20.69.06-4.84.17-9.31-.44-13.54-3a75.76,75.76,0,0,0-7.1-3.3C87.23,107,87.42,88.18,80.58,76.23c-5.82-10.18-19-20-36.75-15.71V18c0-3.4,1.09-4.5,4.48-4.5H76.47V5.21C76.48,1.64,78.08,0,81.61,0H123c3.76,0,5.31,1.57,5.31,5.36v8.33h28.07c3.55,0,4.57,1,4.57,4.54q0,73.59,0,147.17c0,3.95-1.57,5.54-5.5,5.54H114.22V136.56a88.63,88.63,0,0,0-9.81.08c-3.3.38-4.75-1.92-6.67-3.86Zm29.7-75.5v-19h-8.23v19Zm-19-19.09v19h8.23v-19Zm0,82.54v19h8.22v-19Zm19,19.08v-19h-8.24v19ZM75,57v-19H66.82V57ZM64,57V37.94c-2.51,0-5,0-7.56,0-.25,0-.69.54-.69.83,0,6,0,12,0,18.22Zm47-18.77h-8.19v19H111Zm35.83,58.68V78h-8.24v19Zm-10.76,0V78h-8.24v19ZM111,78h-8.22c0,.41-.12.83-.12,1.25,0,5.42,0,10.85,0,16.28,0,1.23.37,1.6,1.57,1.55,2.22-.09,4.43,0,6.8,0ZM91.89,78V97c2.53,0,5.1,0,7.68,0,.2,0,.57-.62.57-1,0-6,0-11.92,0-18.08Zm8.17-20.7v-19H91.88v19Z"/><path class="cls-1" d="M96.15,141A30.55,30.55,0,0,1,104,157.34a6.6,6.6,0,0,1-3,7,55.29,55.29,0,0,1-16.39,7.43c-19.7,5.47-39.57,5.6-59.5,1.46A62.29,62.29,0,0,1,3.3,164.51a6.89,6.89,0,0,1-3.2-7.28,29.17,29.17,0,0,1,6.51-14.52c4.84-5.94,11.1-10,17.92-13.26,1.55-.75,3.14-1.39,4.79-2.12l17.16,28.89c.76-6,1.26-11.85,1.61-17.74a9.69,9.69,0,0,0-.68-3.89c-.92-2.47-2.06-4.85-3.16-7.39H59.8c-.8,2-1.47,3.84-2.33,5.63a11.66,11.66,0,0,0-1.27,7.36c.33,1.86.29,3.78.44,5.68.27,3.39.56,6.78.84,10.18l.34.09,16.9-28.8C82.87,130.48,90.27,134.55,96.15,141ZM20.06,161.64h15V157.8h-15Z"/><path class="cls-1" d="M53.23,66.06c-10.07.29-17,4-22.11,11.18a28.37,28.37,0,0,0,1.49,34.49,25.12,25.12,0,0,0,37.47,1.47C84.29,98.84,78.65,73.59,59.8,67.42A48.26,48.26,0,0,0,53.23,66.06Z"/></g></g></svg>