<?xml version="1.0" encoding="utf-8"?>
<!-- Generator: Adobe Illustrator 16.0.0, SVG Export Plug-In . SVG Version: 6.00 Build 0)  -->
<!DOCTYPE svg PUBLIC "-//W3C//DTD SVG 1.1//EN" "http://www.w3.org/Graphics/SVG/1.1/DTD/svg11.dtd">
<svg version="1.1" id="Capa_1" xmlns="http://www.w3.org/2000/svg" xmlns:xlink="http://www.w3.org/1999/xlink" x="0px" y="0px"
	 width="595.28px" height="274.96px" viewBox="0 0 595.28 274.96" enable-background="new 0 0 595.28 274.96" xml:space="preserve">
<g>
	<defs>
		<path id="SVGID_1_" d="M38.041,56.719c0,3.301,2.663,5.964,5.963,5.964c2.481,0,4.62-1.525,5.508-3.688
			c0.296-0.707,0.456-1.479,0.456-2.276c0-0.819-0.16-1.593-0.479-2.276c-0.888-2.162-3.027-3.664-5.485-3.664
			C40.703,50.779,38.041,53.443,38.041,56.719"/>
	</defs>
	<linearGradient id="SVGID_2_" gradientUnits="userSpaceOnUse" x1="38.0405" y1="56.731" x2="49.9673" y2="56.731">
		<stop  offset="0" style="stop-color:#FFFFFF"/>
		<stop  offset="0" style="stop-color:#FBFBFB"/>
		<stop  offset="0" style="stop-color:#F4F4F4"/>
		<stop  offset="0" style="stop-color:#F2F2F2"/>
		<stop  offset="0" style="stop-color:#F2F2F2"/>
	</linearGradient>
	<use xlink:href="#SVGID_1_"  overflow="visible" fill="url(#SVGID_2_)"/>
	<clipPath id="SVGID_3_">
		<use xlink:href="#SVGID_1_"  overflow="visible"/>
	</clipPath>
	
		<linearGradient id="SVGID_4_" gradientUnits="userSpaceOnUse" x1="-96.9946" y1="443.0254" x2="-95.9946" y2="443.0254" gradientTransform="matrix(0 -188.8005 -188.8005 0 83687.5 -18082.125)">
		<stop  offset="0" style="stop-color:#FFFFFF"/>
		<stop  offset="0" style="stop-color:#FBFBFB"/>
		<stop  offset="0" style="stop-color:#F4F4F4"/>
		<stop  offset="0" style="stop-color:#F2F2F2"/>
		<stop  offset="0" style="stop-color:#F2F2F2"/>
	</linearGradient>
	<rect x="38.04" y="50.779" clip-path="url(#SVGID_3_)" fill="url(#SVGID_4_)" width="11.927" height="11.904"/>
</g>
<g>
	<defs>
		<path id="SVGID_5_" d="M38.041,40.879c0,3.276,2.663,5.963,5.963,5.963c2.481,0,4.62-1.524,5.508-3.687
			c0.296-0.707,0.456-1.479,0.456-2.276c0-0.798-0.16-1.571-0.456-2.276c-0.888-2.162-3.027-3.686-5.508-3.686
			C40.703,34.917,38.041,37.58,38.041,40.879"/>
	</defs>
	<linearGradient id="SVGID_6_" gradientUnits="userSpaceOnUse" x1="38.0405" y1="40.8799" x2="49.9673" y2="40.8799">
		<stop  offset="0" style="stop-color:#FFFFFF"/>
		<stop  offset="0" style="stop-color:#FBFBFB"/>
		<stop  offset="0" style="stop-color:#F4F4F4"/>
		<stop  offset="0" style="stop-color:#F2F2F2"/>
		<stop  offset="0" style="stop-color:#F2F2F2"/>
	</linearGradient>
	<use xlink:href="#SVGID_5_"  overflow="visible" fill="url(#SVGID_6_)"/>
	<clipPath id="SVGID_7_">
		<use xlink:href="#SVGID_5_"  overflow="visible"/>
	</clipPath>
	
		<linearGradient id="SVGID_8_" gradientUnits="userSpaceOnUse" x1="-96.9946" y1="443.0254" x2="-95.9946" y2="443.0254" gradientTransform="matrix(0 -188.8005 -188.8005 0 83687.5 -18082.125)">
		<stop  offset="0" style="stop-color:#FFFFFF"/>
		<stop  offset="0" style="stop-color:#FBFBFB"/>
		<stop  offset="0" style="stop-color:#F4F4F4"/>
		<stop  offset="0" style="stop-color:#F2F2F2"/>
		<stop  offset="0" style="stop-color:#F2F2F2"/>
	</linearGradient>
	<rect x="38.04" y="34.917" clip-path="url(#SVGID_7_)" fill="url(#SVGID_8_)" width="11.927" height="11.925"/>
</g>
<g>
	<defs>
		<path id="SVGID_9_" d="M77.732,72.583c0,2.504,1.525,4.619,3.688,5.507c0.706,0.296,1.479,0.455,2.275,0.455
			c0.797,0,1.571-0.159,2.276-0.455c2.163-0.888,3.687-3.003,3.687-5.507c0-3.277-2.663-5.965-5.963-5.965
			C80.418,66.619,77.732,69.306,77.732,72.583"/>
	</defs>
	<linearGradient id="SVGID_10_" gradientUnits="userSpaceOnUse" x1="77.7324" y1="72.582" x2="89.6582" y2="72.582">
		<stop  offset="0" style="stop-color:#FFFFFF"/>
		<stop  offset="0" style="stop-color:#FBFBFB"/>
		<stop  offset="0" style="stop-color:#F4F4F4"/>
		<stop  offset="0" style="stop-color:#F2F2F2"/>
		<stop  offset="0" style="stop-color:#F2F2F2"/>
	</linearGradient>
	<use xlink:href="#SVGID_9_"  overflow="visible" fill="url(#SVGID_10_)"/>
	<clipPath id="SVGID_11_">
		<use xlink:href="#SVGID_9_"  overflow="visible"/>
	</clipPath>
	
		<linearGradient id="SVGID_12_" gradientUnits="userSpaceOnUse" x1="-96.9946" y1="443.0254" x2="-95.9946" y2="443.0254" gradientTransform="matrix(0 -188.8005 -188.8005 0 83727.125 -18082.125)">
		<stop  offset="0" style="stop-color:#FFFFFF"/>
		<stop  offset="0" style="stop-color:#FBFBFB"/>
		<stop  offset="0" style="stop-color:#F4F4F4"/>
		<stop  offset="0" style="stop-color:#F2F2F2"/>
		<stop  offset="0" style="stop-color:#F2F2F2"/>
	</linearGradient>
	<rect x="77.732" y="66.619" clip-path="url(#SVGID_11_)" fill="url(#SVGID_12_)" width="11.926" height="11.927"/>
</g>
<g>
	<defs>
		<path id="SVGID_13_" d="M38.041,199.441c0,3.303,2.663,5.965,5.963,5.965c2.481,0,4.62-1.525,5.508-3.688
			c0.296-0.684,0.456-1.457,0.456-2.277c0-0.818-0.16-1.592-0.479-2.275c-0.888-2.16-3.027-3.686-5.485-3.686
			C40.703,193.48,38.041,196.166,38.041,199.441"/>
	</defs>
	<linearGradient id="SVGID_14_" gradientUnits="userSpaceOnUse" x1="38.0405" y1="199.4434" x2="49.9673" y2="199.4434">
		<stop  offset="0" style="stop-color:#FFFFFF"/>
		<stop  offset="0" style="stop-color:#FBFBFB"/>
		<stop  offset="0" style="stop-color:#F4F4F4"/>
		<stop  offset="0" style="stop-color:#F2F2F2"/>
		<stop  offset="0" style="stop-color:#F2F2F2"/>
	</linearGradient>
	<use xlink:href="#SVGID_13_"  overflow="visible" fill="url(#SVGID_14_)"/>
	<clipPath id="SVGID_15_">
		<use xlink:href="#SVGID_13_"  overflow="visible"/>
	</clipPath>
	
		<linearGradient id="SVGID_16_" gradientUnits="userSpaceOnUse" x1="-96.9946" y1="443.0254" x2="-95.9946" y2="443.0254" gradientTransform="matrix(0 -188.8005 -188.8005 0 83687.5 -18082.125)">
		<stop  offset="0" style="stop-color:#FFFFFF"/>
		<stop  offset="0" style="stop-color:#FBFBFB"/>
		<stop  offset="0" style="stop-color:#F4F4F4"/>
		<stop  offset="0" style="stop-color:#F2F2F2"/>
		<stop  offset="0" style="stop-color:#F2F2F2"/>
	</linearGradient>
	<rect x="38.04" y="193.48" clip-path="url(#SVGID_15_)" fill="url(#SVGID_16_)" width="11.927" height="11.926"/>
</g>
<g>
	<defs>
		<path id="SVGID_17_" d="M38.041,215.307c0,3.277,2.663,5.963,5.963,5.963c2.481,0,4.62-1.523,5.508-3.688
			c0.296-0.705,0.456-1.479,0.456-2.275s-0.16-1.57-0.456-2.277c-0.888-2.16-3.027-3.686-5.508-3.686
			C40.703,209.344,38.041,212.006,38.041,215.307"/>
	</defs>
	<linearGradient id="SVGID_18_" gradientUnits="userSpaceOnUse" x1="38.0405" y1="215.3066" x2="49.9673" y2="215.3066">
		<stop  offset="0" style="stop-color:#FFFFFF"/>
		<stop  offset="0" style="stop-color:#FBFBFB"/>
		<stop  offset="0" style="stop-color:#F4F4F4"/>
		<stop  offset="0" style="stop-color:#F2F2F2"/>
		<stop  offset="0" style="stop-color:#F2F2F2"/>
	</linearGradient>
	<use xlink:href="#SVGID_17_"  overflow="visible" fill="url(#SVGID_18_)"/>
	<clipPath id="SVGID_19_">
		<use xlink:href="#SVGID_17_"  overflow="visible"/>
	</clipPath>
	
		<linearGradient id="SVGID_20_" gradientUnits="userSpaceOnUse" x1="-96.9946" y1="443.0254" x2="-95.9946" y2="443.0254" gradientTransform="matrix(0 -188.8005 -188.8005 0 83687.5 -18082.125)">
		<stop  offset="0" style="stop-color:#FFFFFF"/>
		<stop  offset="0" style="stop-color:#FBFBFB"/>
		<stop  offset="0" style="stop-color:#F4F4F4"/>
		<stop  offset="0" style="stop-color:#F2F2F2"/>
		<stop  offset="0" style="stop-color:#F2F2F2"/>
	</linearGradient>
	<rect x="38.04" y="209.344" clip-path="url(#SVGID_19_)" fill="url(#SVGID_20_)" width="11.927" height="11.926"/>
</g>
<g>
	<defs>
		<path id="SVGID_21_" d="M38.041,231.168c0,3.279,2.663,5.941,5.963,5.941c2.458,0,4.597-1.502,5.485-3.666
			c0.319-0.682,0.479-1.455,0.479-2.275c0-0.818-0.16-1.594-0.456-2.275c-0.888-2.162-3.027-3.686-5.508-3.686
			C40.703,225.207,38.041,227.871,38.041,231.168"/>
	</defs>
	<linearGradient id="SVGID_22_" gradientUnits="userSpaceOnUse" x1="38.0405" y1="231.1582" x2="49.9673" y2="231.1582">
		<stop  offset="0" style="stop-color:#FFFFFF"/>
		<stop  offset="0" style="stop-color:#FBFBFB"/>
		<stop  offset="0" style="stop-color:#F4F4F4"/>
		<stop  offset="0" style="stop-color:#F2F2F2"/>
		<stop  offset="0" style="stop-color:#F2F2F2"/>
	</linearGradient>
	<use xlink:href="#SVGID_21_"  overflow="visible" fill="url(#SVGID_22_)"/>
	<clipPath id="SVGID_23_">
		<use xlink:href="#SVGID_21_"  overflow="visible"/>
	</clipPath>
	
		<linearGradient id="SVGID_24_" gradientUnits="userSpaceOnUse" x1="-96.9946" y1="443.0254" x2="-95.9946" y2="443.0254" gradientTransform="matrix(0 -188.8005 -188.8005 0 83687.5 -18082.125)">
		<stop  offset="0" style="stop-color:#FFFFFF"/>
		<stop  offset="0" style="stop-color:#FBFBFB"/>
		<stop  offset="0" style="stop-color:#F4F4F4"/>
		<stop  offset="0" style="stop-color:#F2F2F2"/>
		<stop  offset="0" style="stop-color:#F2F2F2"/>
	</linearGradient>
	<rect x="38.04" y="225.207" clip-path="url(#SVGID_23_)" fill="url(#SVGID_24_)" width="11.927" height="11.902"/>
</g>
<g>
	<defs>
		<path id="SVGID_25_" d="M49.488,54.443c0.319,0.684,0.479,1.457,0.479,2.276c0,0.797-0.16,1.569-0.456,2.276h46.384
			c2.98,0,5.393,2.436,5.393,5.394v143.248c0,2.982-2.413,5.393-5.393,5.393H49.511c0.296,0.707,0.456,1.48,0.456,2.277
			s-0.16,1.57-0.456,2.275h46.384c5.484,0,9.945-4.461,9.945-9.945V64.389c0-5.485-4.461-9.946-9.945-9.946H49.488z"/>
	</defs>
	<linearGradient id="SVGID_26_" gradientUnits="userSpaceOnUse" x1="49.4883" y1="136.0127" x2="105.8403" y2="136.0127">
		<stop  offset="0" style="stop-color:#FFFFFF"/>
		<stop  offset="0" style="stop-color:#FBFBFB"/>
		<stop  offset="0" style="stop-color:#F4F4F4"/>
		<stop  offset="0" style="stop-color:#F2F2F2"/>
		<stop  offset="0" style="stop-color:#F2F2F2"/>
	</linearGradient>
	<use xlink:href="#SVGID_25_"  overflow="visible" fill="url(#SVGID_26_)"/>
	<clipPath id="SVGID_27_">
		<use xlink:href="#SVGID_25_"  overflow="visible"/>
	</clipPath>
	
		<linearGradient id="SVGID_28_" gradientUnits="userSpaceOnUse" x1="-96.9946" y1="443.0254" x2="-95.9952" y2="443.0254" gradientTransform="matrix(0 -188.8005 -188.8005 0 83721.125 -18082.125)">
		<stop  offset="0" style="stop-color:#FFFFFF"/>
		<stop  offset="0" style="stop-color:#FBFBFB"/>
		<stop  offset="0" style="stop-color:#F4F4F4"/>
		<stop  offset="0" style="stop-color:#F2F2F2"/>
		<stop  offset="0" style="stop-color:#F2F2F2"/>
	</linearGradient>
	<rect x="49.488" y="54.443" clip-path="url(#SVGID_27_)" fill="url(#SVGID_28_)" width="56.352" height="163.139"/>
</g>
<g>
	<defs>
		<path id="SVGID_29_" d="M157.641,197.166c-0.319,0.684-0.478,1.457-0.478,2.275c0,0.82,0.158,1.594,0.453,2.277
			c0.89,2.162,3.028,3.688,5.509,3.688c3.276,0,5.963-2.662,5.963-5.965c0-3.275-2.687-5.961-5.963-5.961
			C160.667,193.48,158.527,195.006,157.641,197.166"/>
	</defs>
	<linearGradient id="SVGID_30_" gradientUnits="userSpaceOnUse" x1="157.1636" y1="199.4434" x2="169.0884" y2="199.4434">
		<stop  offset="0" style="stop-color:#FFFFFF"/>
		<stop  offset="0" style="stop-color:#FBFBFB"/>
		<stop  offset="0" style="stop-color:#F4F4F4"/>
		<stop  offset="0" style="stop-color:#F2F2F2"/>
		<stop  offset="0" style="stop-color:#F2F2F2"/>
	</linearGradient>
	<use xlink:href="#SVGID_29_"  overflow="visible" fill="url(#SVGID_30_)"/>
	<clipPath id="SVGID_31_">
		<use xlink:href="#SVGID_29_"  overflow="visible"/>
	</clipPath>
	
		<linearGradient id="SVGID_32_" gradientUnits="userSpaceOnUse" x1="-96.9946" y1="443.0254" x2="-95.9946" y2="443.0254" gradientTransform="matrix(0 -188.8005 -188.8005 0 83806.625 -18082.125)">
		<stop  offset="0" style="stop-color:#FFFFFF"/>
		<stop  offset="0" style="stop-color:#FBFBFB"/>
		<stop  offset="0" style="stop-color:#F4F4F4"/>
		<stop  offset="0" style="stop-color:#F2F2F2"/>
		<stop  offset="0" style="stop-color:#F2F2F2"/>
	</linearGradient>
	<rect x="157.164" y="193.48" clip-path="url(#SVGID_31_)" fill="url(#SVGID_32_)" width="11.925" height="11.926"/>
</g>
<g>
	<defs>
		<path id="SVGID_33_" d="M49.511,38.603c0.296,0.705,0.456,1.479,0.456,2.276c0,0.797-0.16,1.569-0.456,2.276h105.945
			c2.979,0,5.393,2.412,5.393,5.369v16.387c0,2.983-2.413,5.396-5.393,5.396H131.08c-5.484,0-9.945,4.46-9.945,9.946v111.52
			c0,5.484,4.461,9.945,9.945,9.945h26.537c-0.295-0.684-0.453-1.457-0.453-2.277c0-0.818,0.158-1.592,0.478-2.275H131.08
			c-2.982,0-5.394-2.412-5.394-5.393V80.253c0-2.982,2.412-5.395,5.394-5.395h24.376c5.484,0,9.945-4.461,9.945-9.947V48.525
			c0-5.461-4.461-9.922-9.945-9.922H49.511z"/>
	</defs>
	<linearGradient id="SVGID_34_" gradientUnits="userSpaceOnUse" x1="49.5112" y1="120.1611" x2="165.4019" y2="120.1611">
		<stop  offset="0" style="stop-color:#FFFFFF"/>
		<stop  offset="0" style="stop-color:#FBFBFB"/>
		<stop  offset="0" style="stop-color:#F4F4F4"/>
		<stop  offset="0" style="stop-color:#F2F2F2"/>
		<stop  offset="0" style="stop-color:#F2F2F2"/>
	</linearGradient>
	<use xlink:href="#SVGID_33_"  overflow="visible" fill="url(#SVGID_34_)"/>
	<clipPath id="SVGID_35_">
		<use xlink:href="#SVGID_33_"  overflow="visible"/>
	</clipPath>
	
		<linearGradient id="SVGID_36_" gradientUnits="userSpaceOnUse" x1="-96.9946" y1="443.0264" x2="-95.9946" y2="443.0264" gradientTransform="matrix(0 -188.8005 -188.8005 0 83751 -18082.125)">
		<stop  offset="0" style="stop-color:#FFFFFF"/>
		<stop  offset="0" style="stop-color:#FBFBFB"/>
		<stop  offset="0" style="stop-color:#F4F4F4"/>
		<stop  offset="0" style="stop-color:#F2F2F2"/>
		<stop  offset="0" style="stop-color:#F2F2F2"/>
	</linearGradient>
	<rect x="49.511" y="38.603" clip-path="url(#SVGID_35_)" fill="url(#SVGID_36_)" width="115.891" height="163.116"/>
</g>
<g>
	<defs>
		<path id="SVGID_37_" d="M83.695,78.545c-0.796,0-1.569-0.159-2.275-0.455v113.683c0,2.98-2.413,5.393-5.371,5.393H49.488
			c0.319,0.684,0.479,1.457,0.479,2.275c0,0.82-0.16,1.594-0.456,2.277h26.538c5.484,0,9.922-4.461,9.922-9.945V78.09
			C85.266,78.386,84.492,78.545,83.695,78.545"/>
	</defs>
	<linearGradient id="SVGID_38_" gradientUnits="userSpaceOnUse" x1="49.4883" y1="139.9043" x2="85.9712" y2="139.9043">
		<stop  offset="0" style="stop-color:#FFFFFF"/>
		<stop  offset="0" style="stop-color:#FBFBFB"/>
		<stop  offset="0" style="stop-color:#F4F4F4"/>
		<stop  offset="0" style="stop-color:#F2F2F2"/>
		<stop  offset="0" style="stop-color:#F2F2F2"/>
	</linearGradient>
	<use xlink:href="#SVGID_37_"  overflow="visible" fill="url(#SVGID_38_)"/>
	<clipPath id="SVGID_39_">
		<use xlink:href="#SVGID_37_"  overflow="visible"/>
	</clipPath>
	
		<linearGradient id="SVGID_40_" gradientUnits="userSpaceOnUse" x1="-96.9946" y1="443.0254" x2="-95.9946" y2="443.0254" gradientTransform="matrix(0 -188.8005 -188.8005 0 83711.25 -18082.125)">
		<stop  offset="0" style="stop-color:#FFFFFF"/>
		<stop  offset="0" style="stop-color:#FBFBFB"/>
		<stop  offset="0" style="stop-color:#F4F4F4"/>
		<stop  offset="0" style="stop-color:#F2F2F2"/>
		<stop  offset="0" style="stop-color:#F2F2F2"/>
	</linearGradient>
	<rect x="49.488" y="78.09" clip-path="url(#SVGID_39_)" fill="url(#SVGID_40_)" width="36.483" height="123.628"/>
</g>
<g>
	<defs>
		<path id="SVGID_41_" d="M157.617,228.893c-0.295,0.682-0.453,1.457-0.453,2.275c0,0.82,0.158,1.594,0.478,2.275
			c0.886,2.164,3.026,3.666,5.484,3.666c3.276,0,5.963-2.662,5.963-5.941c0-3.297-2.687-5.961-5.963-5.961
			C160.645,225.207,158.506,226.73,157.617,228.893"/>
	</defs>
	<linearGradient id="SVGID_42_" gradientUnits="userSpaceOnUse" x1="157.1636" y1="231.1582" x2="169.0884" y2="231.1582">
		<stop  offset="0" style="stop-color:#FFFFFF"/>
		<stop  offset="0" style="stop-color:#FBFBFB"/>
		<stop  offset="0" style="stop-color:#F4F4F4"/>
		<stop  offset="0" style="stop-color:#F2F2F2"/>
		<stop  offset="0" style="stop-color:#F2F2F2"/>
	</linearGradient>
	<use xlink:href="#SVGID_41_"  overflow="visible" fill="url(#SVGID_42_)"/>
	<clipPath id="SVGID_43_">
		<use xlink:href="#SVGID_41_"  overflow="visible"/>
	</clipPath>
	
		<linearGradient id="SVGID_44_" gradientUnits="userSpaceOnUse" x1="-96.9946" y1="443.0254" x2="-95.9946" y2="443.0254" gradientTransform="matrix(0 -188.8005 -188.8005 0 83806.625 -18082.125)">
		<stop  offset="0" style="stop-color:#FFFFFF"/>
		<stop  offset="0" style="stop-color:#FBFBFB"/>
		<stop  offset="0" style="stop-color:#F4F4F4"/>
		<stop  offset="0" style="stop-color:#F2F2F2"/>
		<stop  offset="0" style="stop-color:#F2F2F2"/>
	</linearGradient>
	<rect x="157.164" y="225.207" clip-path="url(#SVGID_43_)" fill="url(#SVGID_44_)" width="11.925" height="11.902"/>
</g>
<g>
	<defs>
		<path id="SVGID_45_" d="M49.511,228.893c0.296,0.682,0.456,1.457,0.456,2.275c0,0.82-0.16,1.594-0.479,2.275h108.153
			c-0.319-0.682-0.478-1.455-0.478-2.275c0-0.818,0.158-1.594,0.453-2.275H49.511z"/>
	</defs>
	<linearGradient id="SVGID_46_" gradientUnits="userSpaceOnUse" x1="49.4883" y1="231.168" x2="157.6411" y2="231.168">
		<stop  offset="0" style="stop-color:#FFFFFF"/>
		<stop  offset="0" style="stop-color:#FBFBFB"/>
		<stop  offset="0" style="stop-color:#F4F4F4"/>
		<stop  offset="0" style="stop-color:#F2F2F2"/>
		<stop  offset="0" style="stop-color:#F2F2F2"/>
	</linearGradient>
	<use xlink:href="#SVGID_45_"  overflow="visible" fill="url(#SVGID_46_)"/>
	<clipPath id="SVGID_47_">
		<use xlink:href="#SVGID_45_"  overflow="visible"/>
	</clipPath>
	
		<linearGradient id="SVGID_48_" gradientUnits="userSpaceOnUse" x1="-96.9946" y1="443.0254" x2="-95.9946" y2="443.0254" gradientTransform="matrix(0 -188.8005 -188.8005 0 83747 -18082.125)">
		<stop  offset="0" style="stop-color:#FFFFFF"/>
		<stop  offset="0" style="stop-color:#FBFBFB"/>
		<stop  offset="0" style="stop-color:#F4F4F4"/>
		<stop  offset="0" style="stop-color:#F2F2F2"/>
		<stop  offset="0" style="stop-color:#F2F2F2"/>
	</linearGradient>
	<rect x="49.488" y="228.893" clip-path="url(#SVGID_47_)" fill="url(#SVGID_48_)" width="108.153" height="4.551"/>
</g>
<linearGradient id="SVGID_49_" gradientUnits="userSpaceOnUse" x1="183.3569" y1="130.124" x2="196.6714" y2="130.124">
	<stop  offset="0" style="stop-color:#FFFFFF"/>
	<stop  offset="0" style="stop-color:#FBFBFB"/>
	<stop  offset="0" style="stop-color:#F4F4F4"/>
	<stop  offset="0" style="stop-color:#F2F2F2"/>
	<stop  offset="0" style="stop-color:#F2F2F2"/>
</linearGradient>
<rect x="183.357" y="92.042" fill="url(#SVGID_49_)" width="13.314" height="76.163"/>
<linearGradient id="SVGID_50_" gradientUnits="userSpaceOnUse" x1="213.6753" y1="130.124" x2="294.688" y2="130.124">
	<stop  offset="0" style="stop-color:#FFFFFF"/>
	<stop  offset="0" style="stop-color:#FBFBFB"/>
	<stop  offset="0" style="stop-color:#F4F4F4"/>
	<stop  offset="0" style="stop-color:#F2F2F2"/>
	<stop  offset="0" style="stop-color:#F2F2F2"/>
</linearGradient>
<path fill="url(#SVGID_50_)" d="M226.988,168.205h-13.313v-60.928c0-4.967,1.428-8.969,4.289-12.016
	c2.855-3.049,7.256-4.572,13.198-4.572c5.265,0,9.272,1.263,12.019,3.783c2.744,2.521,4.908,5.961,6.488,10.321l22.225,48.63
	c0.453,0.904,1.054,1.656,1.807,2.26c0.752,0.6,1.768,0.898,3.048,0.898c1.427,0,2.537-0.395,3.328-1.182
	c0.789-0.789,1.183-1.824,1.183-3.102V92.042h13.429v60.821c0,5.035-1.449,9.08-4.343,12.127c-2.898,3.045-7.278,4.568-13.146,4.568
	c-2.634,0-4.947-0.32-6.939-0.959c-1.994-0.637-3.723-1.578-5.19-2.82c-1.466-1.24-2.726-2.723-3.778-4.455
	c-1.055-1.73-1.958-3.688-2.71-5.867l-22.228-48.632c-0.979-2.181-2.557-3.272-4.738-3.272c-1.504,0-2.65,0.395-3.441,1.188
	c-0.789,0.789-1.186,1.861-1.186,3.214V168.205z"/>
<linearGradient id="SVGID_51_" gradientUnits="userSpaceOnUse" x1="311.1367" y1="130.124" x2="370.8242" y2="130.124">
	<stop  offset="0" style="stop-color:#FFFFFF"/>
	<stop  offset="0" style="stop-color:#FBFBFB"/>
	<stop  offset="0" style="stop-color:#F4F4F4"/>
	<stop  offset="0" style="stop-color:#F2F2F2"/>
	<stop  offset="0" style="stop-color:#F2F2F2"/>
</linearGradient>
<path fill="url(#SVGID_51_)" d="M370.824,92.042v13.316h-30.691c-3.008,0-5.529,0.34-7.559,1.017s-3.65,1.599-4.852,2.761
	c-1.205,1.168-2.051,2.525-2.539,4.065c-0.49,1.541-0.732,3.214-0.732,5.021v7.221h45.922v12.639h-45.922v30.123h-13.314v-49.871
	c0-3.837,0.506-7.354,1.521-10.551c1.016-3.198,2.65-5.958,4.908-8.292c2.258-2.329,5.172-4.156,8.746-5.473
	c3.57-1.316,7.879-1.977,12.92-1.977H370.824z"/>
<linearGradient id="SVGID_52_" gradientUnits="userSpaceOnUse" x1="387.8262" y1="130.124" x2="467.0332" y2="130.124">
	<stop  offset="0" style="stop-color:#FFFFFF"/>
	<stop  offset="0" style="stop-color:#FBFBFB"/>
	<stop  offset="0" style="stop-color:#F4F4F4"/>
	<stop  offset="0" style="stop-color:#F2F2F2"/>
	<stop  offset="0" style="stop-color:#F2F2F2"/>
</linearGradient>
<path fill="url(#SVGID_52_)" d="M432.621,92.042c11.129,0,19.65,3.16,25.557,9.48c5.904,6.318,8.855,15.91,8.855,28.772
	c0,12.789-2.951,22.302-8.855,28.546c-5.906,6.244-14.428,9.363-25.557,9.363h-10.383c-11.131,0-19.652-3.119-25.555-9.363
	c-5.906-6.244-8.857-15.758-8.857-28.546c0-12.862,2.951-22.454,8.857-28.772c5.902-6.32,14.424-9.48,25.555-9.48H432.621z
	 M422.238,105.359c-7.371,0-12.732,1.955-16.076,5.867c-3.348,3.91-5.021,10.268-5.021,19.069c0,8.724,1.654,15.005,4.963,18.843
	c3.309,3.836,8.688,5.754,16.135,5.754h10.383c7.295,0,12.617-1.939,15.965-5.813s5.021-10.172,5.021-18.901
	c0-8.723-1.656-15.043-4.965-18.953c-3.313-3.912-8.652-5.867-16.021-5.867H422.238z"/>
<linearGradient id="SVGID_53_" gradientUnits="userSpaceOnUse" x1="482.1914" y1="130.124" x2="550.2285" y2="130.124">
	<stop  offset="0" style="stop-color:#FFFFFF"/>
	<stop  offset="0" style="stop-color:#FBFBFB"/>
	<stop  offset="0" style="stop-color:#F4F4F4"/>
	<stop  offset="0" style="stop-color:#F2F2F2"/>
	<stop  offset="0" style="stop-color:#F2F2F2"/>
</linearGradient>
<path fill="url(#SVGID_53_)" d="M544.475,92.042v13.316h-39.039c-3.461,0-5.982,0.847-7.561,2.537
	c-1.58,1.693-2.369,3.856-2.369,6.489c0,1.13,0.17,2.238,0.508,3.33c0.338,1.087,0.939,2.067,1.805,2.931
	c0.863,0.869,2.012,1.545,3.441,2.03c1.428,0.491,3.271,0.735,5.529,0.735h17.826c5.191,0,9.441,0.66,12.752,1.972
	c3.309,1.321,5.924,3.032,7.842,5.138c1.918,2.104,3.23,4.513,3.947,7.22c0.715,2.707,1.072,5.414,1.072,8.126
	c0,3.234-0.451,6.203-1.354,8.91c-0.904,2.711-2.332,5.061-4.287,7.055c-1.957,1.992-4.457,3.553-7.504,4.684
	c-3.047,1.125-6.752,1.689-11.115,1.689h-42.424v-13.313h42.877c3.609,0,6.262-0.885,7.953-2.652
	c1.693-1.766,2.539-4.045,2.539-6.826c0-1.205-0.189-2.389-0.564-3.555s-1.016-2.18-1.916-3.047
	c-0.904-0.864-2.127-1.562-3.668-2.084c-1.543-0.527-3.48-0.793-5.813-0.793h-17.715c-5.113,0-9.289-0.636-12.521-1.918
	c-3.236-1.275-5.775-2.97-7.617-5.078c-1.844-2.102-3.123-4.473-3.836-7.109c-0.717-2.628-1.072-5.26-1.072-7.896
	c0-3.16,0.432-6.076,1.297-8.744c0.865-2.67,2.258-4.983,4.176-6.938c1.918-1.956,4.381-3.479,7.391-4.571
	c3.006-1.089,6.619-1.637,10.832-1.637H544.475z"/>
</svg>
