<?xml version="1.0" encoding="utf-8"?>
<!-- Generator: Adobe Illustrator 16.0.0, SVG Export Plug-In . SVG Version: 6.00 Build 0)  -->
<!DOCTYPE svg PUBLIC "-//W3C//DTD SVG 1.1//EN" "http://www.w3.org/Graphics/SVG/1.1/DTD/svg11.dtd">
<svg version="1.1" id="Capa_1" xmlns="http://www.w3.org/2000/svg" xmlns:xlink="http://www.w3.org/1999/xlink" x="0px" y="0px"
	 width="595.281px" height="274.96px" viewBox="0 0 595.281 274.96" enable-background="new 0 0 595.281 274.96"
	 xml:space="preserve">
<title>usuario</title>
<g id="Capa_2">
	<g id="Capa_1-2">
		<linearGradient id="SVGID_1_" gradientUnits="userSpaceOnUse" x1="149.4187" y1="137.478" x2="445.8611" y2="137.478">
			<stop  offset="1" style="stop-color:#FFFFFF"/>
			<stop  offset="1" style="stop-color:#000000"/>
		</linearGradient>
		<path fill="url(#SVGID_1_)" d="M445.861,109.269v106.403c-0.001,20.033-10.691,38.544-28.043,48.558l-17.787,10.296
			c-10.039-32.154-32.371-54.624-66.126-67.727c-0.791-0.297-1.562-0.652-2.49-1.067c35.574-20.22,48.022-65.449,27.804-101.024
			c-20.22-35.575-65.449-48.023-101.024-27.804c-35.574,20.219-48.022,65.45-27.804,101.024
			c7.082,12.46,17.625,22.599,30.353,29.188c-0.133,0.115-0.278,0.215-0.435,0.296c-0.85,0.356-1.68,0.672-2.51,1.048
			c-31.305,13.656-52.095,35.73-61.759,66.502l-18.577-10.731c-17.352-10.014-28.042-28.524-28.044-48.558V109.269
			c0.002-20.034,10.692-38.544,28.044-48.557L269.596,7.51c17.354-10.019,38.733-10.019,56.087,0l92.135,53.202
			C435.17,70.725,445.86,89.235,445.861,109.269z"/>
	</g>
</g>
</svg>
