<svg xmlns="http://www.w3.org/2000/svg" viewBox="0 0 150 139.13"><defs><style>.cls-1{fill:#264e8f;}</style></defs><title>usuario</title><g id="Capa_2" data-name="Capa 2"><g id="Capa_1-2" data-name="Capa 1"><path class="cls-1" d="M150,55.29v53.84a28.37,28.37,0,0,1-14.19,24.57l-9,5.21c-5.08-16.27-16.38-27.64-33.46-34.27-.4-.15-.79-.33-1.26-.54a37.49,37.49,0,1,0-35.76.7,1.13,1.13,0,0,1-.22.15c-.43.18-.85.34-1.27.53C39,112.39,28.48,123.56,23.59,139.13l-9.4-5.43A28.37,28.37,0,0,1,0,109.13V55.29A28.37,28.37,0,0,1,14.19,30.72L60.81,3.8a28.38,28.38,0,0,1,28.38,0l46.62,26.92A28.37,28.37,0,0,1,150,55.29Z"/></g></g></svg>