<svg xmlns="http://www.w3.org/2000/svg" xmlns:xlink="http://www.w3.org/1999/xlink" viewBox="0 0 385.52 152.19"><defs><style>.cls-1{fill:url(#Degradado_sin_nombre_87);}.cls-2{fill:url(#Degradado_sin_nombre_87-3);}.cls-3{fill:url(#Degradado_sin_nombre_87-7);}.cls-4{fill:url(#Degradado_sin_nombre_87-8);}.cls-5{fill:url(#Degradado_sin_nombre_87-9);}.cls-6{fill:url(#Degradado_sin_nombre_87-10);}.cls-7{fill:url(#Degradado_sin_nombre_87-12);}.cls-8{fill:#2a539a;}</style><linearGradient id="Degradado_sin_nombre_87" x1="4.49" y1="147.2" x2="4.49" y2="5.09" gradientUnits="userSpaceOnUse"><stop offset="0" stop-color="#2a539a"/><stop offset="0.04" stop-color="#355f9e"/><stop offset="0.19" stop-color="#5a88ac"/><stop offset="0.33" stop-color="#75a6b6"/><stop offset="0.44" stop-color="#85b8bc"/><stop offset="0.53" stop-color="#8bbebe"/><stop offset="0.6" stop-color="#83bbbc"/><stop offset="0.71" stop-color="#6eb4b6"/><stop offset="0.84" stop-color="#4ba9ab"/><stop offset="1" stop-color="#1b999d"/><stop offset="1" stop-color="#1a999d"/></linearGradient><linearGradient id="Degradado_sin_nombre_87-3" x1="34.36" y1="147.2" x2="34.36" y2="5.09" xlink:href="#Degradado_sin_nombre_87"/><linearGradient id="Degradado_sin_nombre_87-7" x1="29.82" y1="147.2" x2="29.82" y2="5.09" xlink:href="#Degradado_sin_nombre_87"/><linearGradient id="Degradado_sin_nombre_87-8" x1="94.15" y1="147.2" x2="94.15" y2="5.09" xlink:href="#Degradado_sin_nombre_87"/><linearGradient id="Degradado_sin_nombre_87-9" x1="52.25" y1="147.2" x2="52.25" y2="5.09" xlink:href="#Degradado_sin_nombre_87"/><linearGradient id="Degradado_sin_nombre_87-10" x1="22.35" y1="147.2" x2="22.35" y2="5.09" xlink:href="#Degradado_sin_nombre_87"/><linearGradient id="Degradado_sin_nombre_87-12" x1="49.32" y1="147.2" x2="49.32" y2="5.09" xlink:href="#Degradado_sin_nombre_87"/></defs><title>version preferente-sin slogan</title><g id="Capa_2" data-name="Capa 2"><g id="Capa_1-2" data-name="Capa 1"><path class="cls-1" d="M9,16.41a4.29,4.29,0,0,1-.35,1.71,4.48,4.48,0,1,1,0-3.42A4,4,0,0,1,9,16.41Z"/><path class="cls-1" d="M9,4.49A4.29,4.29,0,0,1,8.63,6.2a4.49,4.49,0,1,1,0-3.43A4.37,4.37,0,0,1,9,4.49Z"/><path class="cls-2" d="M38.85,28.35a4.46,4.46,0,0,1-2.77,4.15,4.51,4.51,0,0,1-1.72.34,4.49,4.49,0,1,1,4.49-4.49Z"/><path class="cls-1" d="M9,123.84a4.15,4.15,0,0,1-.35,1.71,4.5,4.5,0,1,1,0-3.42A4,4,0,0,1,9,123.84Z"/><path class="cls-1" d="M9,135.78a4.29,4.29,0,0,1-.35,1.71,4.49,4.49,0,1,1,0-3.42A4.29,4.29,0,0,1,9,135.78Z"/><path class="cls-1" d="M9,147.72a4,4,0,0,1-.36,1.71,4.48,4.48,0,1,1,0-3.42A4.15,4.15,0,0,1,9,147.72Z"/><path class="cls-3" d="M51,22.18V130a7.49,7.49,0,0,1-7.48,7.48H8.63a4.35,4.35,0,0,0,0-3.42H43.55A4.06,4.06,0,0,0,47.61,130V22.18a4.08,4.08,0,0,0-4.06-4.06H8.63A4.29,4.29,0,0,0,9,16.41a4,4,0,0,0-.36-1.71H43.55A7.49,7.49,0,0,1,51,22.18Z"/><path class="cls-4" d="M98.64,123.84A4.48,4.48,0,0,1,90,125.55a4.15,4.15,0,0,1-.35-1.71,4,4,0,0,1,.36-1.71,4.48,4.48,0,0,1,8.62,1.71Z"/><path class="cls-5" d="M95.86,10.24V22.58a7.48,7.48,0,0,1-7.48,7.48H70A4.06,4.06,0,0,0,66,34.12v83.95A4.06,4.06,0,0,0,70,122.13H90a4,4,0,0,0-.36,1.71,4.15,4.15,0,0,0,.35,1.71H70a7.49,7.49,0,0,1-7.48-7.48V34.12A7.49,7.49,0,0,1,70,26.64H88.38a4.06,4.06,0,0,0,4.06-4.06V10.24a4.06,4.06,0,0,0-4.06-4H8.63A4.29,4.29,0,0,0,9,4.49a4.37,4.37,0,0,0-.35-1.72H88.38A7.49,7.49,0,0,1,95.86,10.24Z"/><path class="cls-6" d="M36.08,32.5v85.57a7.48,7.48,0,0,1-7.47,7.48h-20A4.15,4.15,0,0,0,9,123.84a4,4,0,0,0-.36-1.71h20a4.05,4.05,0,0,0,4-4.06V32.5a4.46,4.46,0,0,0,1.71.34A4.51,4.51,0,0,0,36.08,32.5Z"/><path class="cls-4" d="M98.64,147.72A4.48,4.48,0,0,1,90,149.43a4,4,0,0,1-.36-1.71A4.15,4.15,0,0,1,90,146a4.48,4.48,0,0,1,8.63,1.71Z"/><path class="cls-7" d="M8.62,149.43A4,4,0,0,0,9,147.72,4.15,4.15,0,0,0,8.63,146H90a4.15,4.15,0,0,0-.35,1.71,4,4,0,0,0,.36,1.71Z"/><path class="cls-8" d="M119.4,43v57.33h-10V43Z"/><path class="cls-8" d="M142.22,100.33h-10V54.47a12.65,12.65,0,0,1,3.23-9Q138.66,42,145.36,42c4,0,7,1,9,2.85a19.16,19.16,0,0,1,4.88,7.77L176,89.2a5,5,0,0,0,1.36,1.7,3.6,3.6,0,0,0,2.3.68,3.41,3.41,0,0,0,2.5-.89,3.18,3.18,0,0,0,.89-2.34V43h10.11V88.78a12.72,12.72,0,0,1-3.27,9.13q-3.27,3.44-9.9,3.43a17.15,17.15,0,0,1-5.22-.72,11.44,11.44,0,0,1-3.91-2.12A13.6,13.6,0,0,1,168,95.15a23.41,23.41,0,0,1-2-4.42L149.27,54.12a3.71,3.71,0,0,0-3.57-2.46,3.5,3.5,0,0,0-2.59.9,3.27,3.27,0,0,0-.89,2.41Z"/><path class="cls-8" d="M250.49,43V53H227.38a18.09,18.09,0,0,0-5.68.77A9.49,9.49,0,0,0,218,55.87a7.3,7.3,0,0,0-1.91,3.06,12.27,12.27,0,0,0-.55,3.77v5.44h34.57v9.51H215.58v22.68h-10V62.79a26.22,26.22,0,0,1,1.14-7.94,15.65,15.65,0,0,1,3.7-6.24A17.25,17.25,0,0,1,217,44.49,28.24,28.24,0,0,1,226.71,43Z"/><path class="cls-8" d="M297,43q12.57,0,19.24,7.13t6.66,21.66q0,14.44-6.66,21.49t-19.24,7h-7.81q-12.57,0-19.24-7t-6.67-21.49q0-14.52,6.67-21.66T289.19,43Zm-7.81,10q-8.32,0-12.11,4.42T273.3,71.79q0,9.85,3.74,14.18t12.15,4.34H297q8.24,0,12-4.38T312.8,71.7q0-9.84-3.74-14.26T297,53Z"/><path class="cls-8" d="M381.19,43V53H351.81c-2.61,0-4.5.64-5.69,1.91a6.89,6.89,0,0,0-1.79,4.89,8.21,8.21,0,0,0,.39,2.5,5.28,5.28,0,0,0,1.35,2.21,6.67,6.67,0,0,0,2.6,1.53,13,13,0,0,0,4.16.55h13.41a26.52,26.52,0,0,1,9.6,1.48,15.79,15.79,0,0,1,5.9,3.87,12.83,12.83,0,0,1,3,5.44,24.12,24.12,0,0,1,.8,6.11,21.08,21.08,0,0,1-1,6.71,13.63,13.63,0,0,1-3.22,5.31,15.23,15.23,0,0,1-5.65,3.52,24.15,24.15,0,0,1-8.37,1.28H335.33v-10H367.6q4.08,0,6-2a7.11,7.11,0,0,0,1.91-5.14,8.66,8.66,0,0,0-.42-2.67,5.53,5.53,0,0,0-1.45-2.3,7.44,7.44,0,0,0-2.76-1.57A13.9,13.9,0,0,0,366.5,76H353.17a25.81,25.81,0,0,1-9.43-1.45A14.38,14.38,0,0,1,338,70.77a13.32,13.32,0,0,1-2.89-5.35,22.49,22.49,0,0,1-.81-5.94,21.33,21.33,0,0,1,1-6.59,13.13,13.13,0,0,1,3.14-5.22A14.72,14.72,0,0,1,344,44.23,24.08,24.08,0,0,1,352.15,43Z"/></g></g></svg>