<?xml version="1.0" encoding="utf-8"?>
<!-- Generator: Adobe Illustrator 16.0.0, SVG Export Plug-In . SVG Version: 6.00 Build 0)  -->
<!DOCTYPE svg PUBLIC "-//W3C//DTD SVG 1.1//EN" "http://www.w3.org/Graphics/SVG/1.1/DTD/svg11.dtd">
<svg version="1.1" id="Capa_1" xmlns="http://www.w3.org/2000/svg" xmlns:xlink="http://www.w3.org/1999/xlink" x="0px" y="0px"
	 width="188.667px" height="56.333px" viewBox="0 0 188.667 56.333" enable-background="new 0 0 188.667 56.333"
	 xml:space="preserve">
<g>
	<path fill="#2E4E9D" stroke="#2E4E9D" stroke-miterlimit="10" d="M3.963,54.352C5.316,34.134,5.992,18.575,5.992,7.673L5.957,2.802
		c4.11,0.051,6.858,0.076,8.244,0.076c0.634,0,3.159-0.025,7.574-0.076c-0.425,5.665-0.766,11.027-1.025,16.088
		c-0.33,7.05-0.565,13.64-0.707,19.77c-0.141,6.131-0.211,11.361-0.211,15.692l-7.214-0.076
		C11.211,54.276,8.326,54.301,3.963,54.352z"/>
	<path fill="#FFFFFF" stroke="#7C7C7C" stroke-miterlimit="10" d="M27.61,54.352l0.528-5.948l1.03-20.167l0.291-8.129v-4.419
		c2.732,0.038,5.147,0.057,7.246,0.057c1.498,0,3.605-0.019,6.32-0.057l11.27,21.988l1.554,3.229
		c0.198-3.172,0.401-7.621,0.609-13.345c0.208-5.724,0.312-9.681,0.312-11.873c2.163,0.038,3.895,0.057,5.196,0.057
		c0.598,0,2.321-0.019,5.169-0.057L66.5,24.13l-1.188,23.452l-0.158,6.771c-2.29-0.038-4.43-0.057-6.42-0.057
		c-1.656,0-3.945,0.019-6.868,0.057c-0.915-1.851-1.591-3.193-2.031-4.023l-4.43-8.076c-1.459-2.645-2.804-5.176-4.034-7.595
		c-0.809-1.529-1.644-3.211-2.505-5.043l-0.568,13.431l-0.271,11.307c-2.18-0.038-3.841-0.057-4.984-0.057
		C32.076,54.295,30.265,54.314,27.61,54.352z"/>
	<path fill="#FFFFFF" stroke="#7C7C7C" stroke-miterlimit="10" d="M72.07,54.352c0.369-3.834,0.625-6.911,0.765-9.234
		c0.211-3.437,0.413-8.162,0.606-14.176c0.194-6.014,0.291-10.06,0.291-12.137v-3.116c5.298,0.038,10.227,0.057,14.786,0.057
		c4.594,0,9.013-0.019,13.254-0.057c-0.281,4.343-0.422,7.185-0.422,8.526l-2.297-0.085l-1.85-0.028l-1.847-0.028h-5.202
		c-0.598,0-2.35,0.019-5.254,0.057l-0.237,6.599l3.828,0.085h4.276c1.232,0,3.116-0.028,5.65-0.085
		c-0.194,3.569-0.291,6.364-0.291,8.384c-2.827-0.094-4.929-0.142-6.299-0.142c-2.319,0-4.85,0.048-7.591,0.142L83.964,49.31
		l-0.027,3.795v1.247l-5.682-0.057C77.814,54.295,75.752,54.314,72.07,54.352z"/>
	<path fill="#FFFFFF" stroke="#7C7C7C" stroke-miterlimit="10" d="M126.959,14.953c2.815,0,5.526,0.406,8.132,1.218
		c2.604,0.812,4.885,2.11,6.837,3.895c1.955,1.784,3.415,3.838,4.384,6.16c0.967,2.323,1.451,4.995,1.451,8.016
		c0,3.172-0.532,6.085-1.597,8.737c-1.065,2.653-2.601,4.906-4.606,6.755c-2.007,1.852-4.401,3.207-7.182,4.065
		c-2.782,0.859-5.677,1.289-8.687,1.289c-2.975,0-5.826-0.421-8.554-1.261c-2.729-0.841-5.1-2.2-7.116-4.078
		c-2.016-1.88-3.444-3.971-4.29-6.274c-0.845-2.304-1.267-4.861-1.267-7.677c0-4.134,0.893-7.764,2.68-10.89
		c1.786-3.125,4.436-5.565,7.946-7.321C118.603,15.831,122.559,14.953,126.959,14.953z M126.484,23.479
		c-2.024,0-3.854,0.534-5.491,1.6c-1.637,1.068-2.896,2.549-3.776,4.448c-0.88,1.897-1.318,3.932-1.318,6.104
		c0,2.001,0.399,3.833,1.2,5.493c0.801,1.663,2.02,2.961,3.657,3.895c1.636,0.936,3.37,1.402,5.2,1.402
		c1.954,0,3.745-0.523,5.373-1.572c1.628-1.047,2.869-2.52,3.723-4.418c0.854-1.897,1.28-3.885,1.28-5.962
		c0-2.021-0.396-3.885-1.188-5.595c-0.792-1.708-1.954-3.035-3.485-3.979S128.403,23.479,126.484,23.479z"/>
	<path fill="#2E4E9D" stroke="#2E4E9D" stroke-miterlimit="10" d="M152.446,53.558c-0.306-5.362-0.657-9.655-1.057-12.878
		c2.634,1.259,4.979,2.134,7.036,2.625c2.057,0.491,3.861,0.736,5.414,0.736c2.044,0,3.673-0.321,4.884-0.963
		s1.816-1.593,1.816-2.852c0-0.428-0.059-0.837-0.177-1.228c-0.118-0.39-0.341-0.83-0.67-1.321s-0.8-1.026-1.411-1.605l-6.632-6.193
		c-1.553-1.409-2.634-2.429-3.246-3.059c-1.246-1.284-2.217-2.479-2.91-3.588c-0.693-1.108-1.199-2.234-1.517-3.38
		c-0.317-1.146-0.476-2.36-0.476-3.645c0-1.535,0.252-3.04,0.757-4.513c0.505-1.473,1.262-2.851,2.271-4.135
		c1.009-1.284,2.347-2.392,4.013-3.323c1.667-0.931,3.45-1.567,5.352-1.907c1.9-0.34,3.86-0.51,5.878-0.51
		c3.967,0,8.284,0.491,12.955,1.473c0.07,1.737,0.152,3.33,0.246,4.777c0.094,1.449,0.316,3.984,0.669,7.61
		c-2.159-0.931-4.131-1.58-5.914-1.945c-1.783-0.364-3.32-0.548-4.611-0.548c-1.831,0-3.351,0.365-4.559,1.095
		c-1.209,0.731-1.813,1.637-1.813,2.719c0,0.504,0.094,0.995,0.282,1.473c0.188,0.478,0.539,1.039,1.056,1.68
		c0.517,0.642,1.197,1.347,2.042,2.115c0.845,0.769,2.171,1.907,3.978,3.417l2.534,2.153c0.752,0.655,1.562,1.448,2.43,2.379
		c0.868,0.932,1.619,1.851,2.253,2.757s1.12,1.737,1.461,2.493c0.34,0.755,0.592,1.517,0.757,2.284
		c0.164,0.769,0.246,1.593,0.246,2.474c0,2.267-0.505,4.425-1.514,6.477c-1.009,2.053-2.44,3.739-4.295,5.062
		c-1.854,1.321-3.89,2.246-6.107,2.775c-2.218,0.528-4.559,0.793-7.022,0.793C163.042,55.333,158.242,54.742,152.446,53.558z"/>
</g>
</svg>
